<svg width="37" height="37" viewBox="0 0 37 37" fill="none" xmlns="http://www.w3.org/2000/svg">
<path d="M37 37H0V0H37V37Z" fill="#F8D9FF"/>
<path d="M37 37H18.5V0H37V37Z" fill="#F3C0FF"/>
<path d="M34.832 34.832H2.16797V2.16797H34.832V34.832Z" fill="#723B7F"/>
<path d="M34.832 34.832H18.5V2.16797H34.832V34.832Z" fill="#5C3066"/>
<path d="M12.4946 13.1233H14.6105L19.2934 25.4374H16.8305L15.6858 22.3675H11.3846L10.2572 25.4374H7.79443L12.4946 13.1233ZM15.2523 20.6852L13.5526 15.8463L11.7835 20.6852H15.2523Z" fill="#F8D9FF"/>
<path d="M24.3926 25.6108C21.49 25.6108 19.6057 23.4591 19.6057 20.9453C19.6057 18.6895 21.1738 16.1931 24.4099 16.1931C26.7202 16.1931 29.1448 17.723 29.1448 20.8586C29.1448 21.009 29.1158 21.5466 29.0927 21.639H22.0685C22.1032 21.9976 22.4867 23.9111 24.4793 23.9111C25.7687 23.9111 26.4795 23.0499 26.6299 22.6797L28.6245 23.2347C28.2889 23.9284 27.1538 25.6108 24.3926 25.6108ZM26.7513 20.1301C26.6118 18.6805 25.5639 17.8755 24.3752 17.8755C23.1521 17.8755 22.1404 18.7979 22.0338 20.1301H26.7513Z" fill="#F3C0FF"/>
<path d="M18.5 23.3508V25.4373H19.2934L18.5 23.3508Z" fill="#F3C0FF"/>
</svg>
