<svg width="37" height="37" viewBox="0 0 37 37" fill="none" xmlns="http://www.w3.org/2000/svg">
<path d="M37 37H0V0H37V37Z" fill="#FF80E4"/>
<path d="M37 37H18.5V0H37V37Z" fill="#FF5AD4"/>
<path d="M34.832 34.832H2.16797V2.16797H34.832V34.832Z" fill="#7F1363"/>
<path d="M34.832 34.832H18.5V2.16797H34.832V34.832Z" fill="#661054"/>
<path d="M10.584 13.1235L13.6538 17.7023L16.7063 13.1235H19.2906L14.9026 19.3673L19.1518 25.4376H16.5676L13.6538 21.0323L10.7228 25.4376H8.12124L12.3705 19.3673L7.98242 13.1235H10.584Z" fill="#FF80E4"/>
<path d="M23.5399 25.611C20.8717 25.611 19.2212 23.387 19.2212 20.8935C19.2212 18.0665 21.1246 16.1933 23.2796 16.1933C25.1052 16.1933 26.0486 17.4247 26.3494 17.945V12.7766H28.6735V22.7666C28.6735 23.0094 29.0144 23.4489 29.2111 23.4604V25.4375C28.8062 25.5183 28.4767 25.559 28.2225 25.559C26.5444 25.559 26.6963 23.8593 26.6963 23.8593C26.3609 24.4376 25.3612 25.611 23.5399 25.611ZM24.1469 23.6338C25.6051 23.6338 26.2685 22.3273 26.3495 22.1075V19.9396C26.2568 19.6853 25.4244 18.1705 24.0081 18.1705C22.4255 18.1705 21.632 19.7406 21.632 20.9455C21.632 22.2699 22.606 23.6338 24.1469 23.6338Z" fill="#FF5AD4"/>
<path d="M18.5 13.1235V14.2486L19.2907 13.1235H18.5Z" fill="#FF5AD4"/>
<path d="M18.5 25.4375H19.1519L18.5 24.5061V25.4375Z" fill="#FF5AD4"/>
</svg>
