<svg width="37" height="37" viewBox="0 0 37 37" fill="none" xmlns="http://www.w3.org/2000/svg">
<path d="M37 37H0V0H37V37Z" fill="#FEC478"/>
<path d="M37 37H18.5V0H37V37Z" fill="#FEA832"/>
<path d="M34.832 34.832H2.16797V2.16797H34.832V34.832Z" fill="#994C0F"/>
<path d="M34.832 34.832H18.5V2.16797H34.832V34.832Z" fill="#713708"/>
<path d="M14.9953 13.1235H17.1113L21.7941 25.4376H19.3313L18.1866 22.3678H13.8853L12.758 25.4376H10.2952L14.9953 13.1235ZM17.753 20.6854L16.0533 15.8465L14.2842 20.6854H17.753Z" fill="#FEC478"/>
<path d="M22.9214 15.0833V12.7766H25.2454V15.0833H22.9214V15.0833ZM22.9214 25.4375V16.3494H25.2454V25.4375H22.9214Z" fill="#FEA832"/>
<path d="M18.5 16.7756V23.2086L19.3312 25.4376H21.794L18.5 16.7756Z" fill="#FEA832"/>
</svg>
