<svg width="37" height="37" viewBox="0 0 37 37" fill="none" xmlns="http://www.w3.org/2000/svg">
<path d="M33.6459 0H3.35414C1.50168 0 0 1.50168 0 3.35414V33.6459C0 35.4983 1.50168 37 3.35414 37H33.6459C35.4983 37 37 35.4983 37 33.6459V3.35414C37 1.50168 35.4983 0 33.6459 0Z" fill="#DC395F"/>
<path d="M12.365 11.6415C13.595 11.6415 14.6253 10.6775 14.6253 9.414C14.6253 8.15138 13.595 7.1875 12.365 7.1875C11.1351 7.1875 10.105 8.15138 10.105 9.414C10.105 10.6774 11.1351 11.6415 12.365 11.6415Z" fill="white"/>
<path d="M7.67917 23.568C7.54635 24.1331 7.47972 24.7433 7.47972 25.2411C7.47972 27.2025 8.54332 28.5046 10.8036 28.5046C12.6782 28.5046 14.198 27.3914 15.2922 25.5939L14.624 28.2754H18.3464L20.4739 19.7424C21.0058 17.582 22.0362 16.4605 23.5986 16.4605C24.8284 16.4605 25.5928 17.2254 25.5928 18.488C25.5928 18.8538 25.5596 19.2523 25.4266 19.6846L24.3296 23.6067C24.1634 24.1719 24.0972 24.7373 24.0972 25.2687C24.0972 27.1307 25.1938 28.4926 27.4873 28.4926C29.4485 28.4926 31.0106 27.2301 31.8749 24.2052L30.4125 23.6407C29.6812 25.6672 29.0496 26.0336 28.5509 26.0336C28.0523 26.0336 27.7864 25.7014 27.7864 25.037C27.7864 24.7378 27.8531 24.4059 27.9526 24.0061L29.0165 20.185C29.2823 19.2877 29.3821 18.4921 29.3821 17.761C29.3821 14.9025 27.6535 13.4106 25.5596 13.4106C23.5986 13.4106 21.604 15.1796 20.6071 17.0413L21.3381 13.6997H15.6546L14.8567 16.6429H17.516L15.8784 23.1989C14.5925 26.0574 12.2305 26.1038 11.934 26.0375C11.4472 25.9276 11.1359 25.7428 11.1359 25.1103C11.1359 24.7454 11.2024 24.2211 11.3686 23.5891L13.8618 13.6997H7.54635L6.74854 16.6429H9.37424L7.67932 23.568" fill="white"/>
</svg>
