<svg width="37" height="38" viewBox="0 0 37 38" fill="none" xmlns="http://www.w3.org/2000/svg">
<path d="M33.748 0H3.25195C1.45247 0 0 1.49172 0 3.33984V34.6602C0 36.5083 1.45247 38 3.25195 38H33.748C35.5475 38 37 36.5083 37 34.6602V3.33984C37 1.49172 35.5475 0 33.748 0Z" fill="#19CFFC"/>
<path d="M37 3.33984V34.6602C37 36.5083 35.5475 38 33.748 38H18.5V0H33.748C35.5475 0 37 1.49172 37 3.33984Z" fill="#1EA1E3"/>
<path d="M33.748 2.22656H3.25195C2.64485 2.22656 2.16797 2.71633 2.16797 3.33984V34.6602C2.16797 35.2837 2.64485 35.7734 3.25195 35.7734H33.748C34.3552 35.7734 34.832 35.2837 34.832 34.6602V3.33984C34.832 2.71633 34.3552 2.22656 33.748 2.22656Z" fill="#053791"/>
<path d="M34.832 3.33984V34.6602C34.832 35.2837 34.3552 35.7734 33.748 35.7734H18.5V2.22656H33.748C34.3552 2.22656 34.832 2.71633 34.832 3.33984Z" fill="#1B2868"/>
<path d="M18.5 11.2293C17.5244 9.87109 15.9418 8.98047 14.1641 8.98047H7.66016C7.05305 8.98047 6.57617 9.47024 6.57617 10.0938V27.9062C6.57617 28.5298 7.05305 29.0195 7.66016 29.0195C8.26726 29.0195 8.74414 28.5298 8.74414 27.9062V20.1133H14.1641C15.9418 20.1133 17.5027 19.2449 18.5 17.8867C19.1721 16.9739 19.584 15.7937 19.584 14.5469C19.584 13.3 19.1938 12.1421 18.5 11.2293ZM14.1641 17.8867H8.74414V11.207H14.1641C15.9635 11.207 17.416 12.6988 17.416 14.5469C17.416 16.395 15.9635 17.8867 14.1641 17.8867Z" fill="#19CFFC"/>
<path d="M26.0879 29.0195C23.6965 29.0195 21.752 27.0224 21.752 24.5664C21.752 23.9511 22.2368 23.4531 22.8359 23.4531C23.4351 23.4531 23.9199 23.9511 23.9199 24.5664C23.9199 25.7938 24.8928 26.793 26.0879 26.793C27.283 26.793 28.2559 25.7938 28.2559 24.5664C28.2559 23.339 27.283 22.3398 26.0879 22.3398C23.6965 22.3398 21.752 20.3427 21.752 17.8867C21.752 15.4307 23.6965 13.4336 26.0879 13.4336C28.4792 13.4336 30.4238 15.4307 30.4238 17.8867C30.4238 18.5021 29.939 19 29.3398 19C28.7407 19 28.2559 18.5021 28.2559 17.8867C28.2559 16.6593 27.283 15.6602 26.0879 15.6602C24.8928 15.6602 23.9199 16.6593 23.9199 17.8867C23.9199 19.1141 24.8928 20.1133 26.0879 20.1133C28.4792 20.1133 30.4238 22.1104 30.4238 24.5664C30.4238 27.0224 28.4792 29.0195 26.0879 29.0195Z" fill="#1EA1E3"/>
<path d="M19.584 14.5468C19.584 15.7937 19.1721 16.9739 18.5 17.8867V11.2292C19.1938 12.1421 19.584 13.3 19.584 14.5468Z" fill="#1EA1E3"/>
</svg>
