<svg width="37" height="37" viewBox="0 0 37 37" fill="none" xmlns="http://www.w3.org/2000/svg">
<g clip-path="url(#clip0)">
<path d="M13.6329 19.5037C11.4869 19.5037 9.74634 21.2442 9.74634 23.3902V33.112C9.74634 35.258 11.4869 36.9985 13.6329 36.9985C15.7789 36.9985 17.5194 35.258 17.5194 33.112V23.3902C17.5179 21.2442 15.7773 19.5037 13.6329 19.5037Z" fill="#E91E63"/>
<path d="M0.0292969 23.3904C0.0292969 25.5379 1.77138 27.28 3.91892 27.28C6.06646 27.28 7.80855 25.5379 7.80855 23.3904V19.5007H3.92201C3.92046 19.5007 3.92046 19.5007 3.91892 19.5007C1.77138 19.5007 0.0292969 21.2428 0.0292969 23.3904V23.3904Z" fill="#E91E63"/>
<path d="M13.6377 -0.00170898C13.6361 -0.00170898 13.6346 -0.00170898 13.633 -0.00170898C11.4855 -0.00170898 9.74341 1.74037 9.74341 3.88792C9.74341 6.03546 11.4855 7.77754 13.633 7.77754H17.5196V3.88792C17.5196 3.88637 17.5196 3.88329 17.5196 3.88021C17.518 1.73575 15.7806 -0.00170898 13.6377 -0.00170898V-0.00170898Z" fill="#00BCD4"/>
<path d="M3.89256 17.5285H13.6328C15.7803 17.5285 17.5224 15.7864 17.5224 13.6389C17.5224 11.4914 15.7803 9.74927 13.6328 9.74927H3.89256C1.74501 9.74927 0.00292969 11.4914 0.00292969 13.6389C0.00292969 15.7864 1.74501 17.5285 3.89256 17.5285V17.5285Z" fill="#00BCD4"/>
<path d="M33.0794 9.74805C30.935 9.74805 29.1975 11.4855 29.1975 13.63V13.6377V17.5273H33.0841C35.2316 17.5273 36.9737 15.7852 36.9737 13.6377C36.9737 11.4901 35.2316 9.74805 33.0841 9.74805C33.0825 9.74805 33.081 9.74805 33.0794 9.74805V9.74805Z" fill="#4CAF50"/>
<path d="M19.4883 3.88825V13.6393C19.4883 15.7853 21.2288 17.5258 23.3748 17.5258C25.5208 17.5258 27.2614 15.7853 27.2614 13.6393V3.88825C27.2614 1.74225 25.5208 0.00170898 23.3748 0.00170898C21.2288 0.00170898 19.4883 1.74225 19.4883 3.88825V3.88825Z" fill="#4CAF50"/>
<path d="M27.2599 33.109C27.2599 30.963 25.5194 29.2224 23.3734 29.2224H19.4868V33.112C19.4884 35.2565 21.2274 36.9955 23.3734 36.9955C25.5194 36.9955 27.2599 35.255 27.2599 33.109Z" fill="#FF9800"/>
<path d="M33.1135 19.5007H23.3733C21.2257 19.5007 19.4836 21.2428 19.4836 23.3904C19.4836 25.5379 21.2257 27.28 23.3733 27.28H33.1135C35.2611 27.28 37.0032 25.5379 37.0032 23.3904C37.0032 21.2428 35.2611 19.5007 33.1135 19.5007V19.5007Z" fill="#FF9800"/>
</g>
<defs>
<clipPath id="clip0">
<rect width="37" height="37" fill="white"/>
</clipPath>
</defs>
</svg>
