<svg width="44" height="44" viewBox="0 0 44 44" fill="none" xmlns="http://www.w3.org/2000/svg">
<path d="M22 37.125C30.3533 37.125 37.125 30.3533 37.125 22C37.125 13.6467 30.3533 6.875 22 6.875C13.6467 6.875 6.875 13.6467 6.875 22C6.875 30.3533 13.6467 37.125 22 37.125Z" fill="#004EB1"/>
<path d="M24.0625 12.5881C24.0625 11.5672 24.8902 10.7387 25.9119 10.7387H26.8366V9.66006C26.8366 8.99525 27.038 8.37787 27.3824 7.86362C25.7091 7.227 23.8961 6.875 22 6.875V14.4375H25.9119C24.8902 14.4375 24.0625 13.6097 24.0625 12.5881V12.5881Z" fill="#2B67B3"/>
<path d="M22 16.5V14.4375H14.8603C14.1577 16.6636 13.75 19.2424 13.75 22H16.5C16.5 18.9626 18.9626 16.5 22 16.5Z" fill="#2B67B3"/>
<path d="M22.0003 37.125V29.5625H14.8564C16.2837 34.0821 18.9471 37.125 22.0003 37.125Z" fill="#2B67B3"/>
<path d="M14.8562 29.5625H8.9375H14.8562C14.1542 27.3371 13.75 24.7562 13.75 22H6.875C6.875 30.3531 13.6469 37.125 22 37.125C18.9468 37.125 16.2834 34.0821 14.8562 29.5625Z" fill="#2B67B3"/>
<path d="M22 27.5V29.5625H29.1397C29.8423 27.3364 30.25 24.7576 30.25 22H27.5C27.5 25.0374 25.0374 27.5 22 27.5Z" fill="#2B67B3"/>
<path d="M25.9119 14.4375H22V16.5C25.0374 16.5 27.5 18.9626 27.5 22H30.25C30.25 20.0599 30.0506 18.2043 29.6876 16.5C30.0506 18.2043 30.25 20.0599 30.25 22H37.125C37.125 19.2438 36.3846 16.6629 35.0962 14.4375H26.125H25.9119Z" fill="#2B67B3"/>
<path d="M16.5 22H13.75C13.75 24.7562 14.1542 27.3371 14.8562 29.5625H22V27.5C18.9626 27.5 16.5 25.0374 16.5 22Z" fill="#2B67B3"/>
<path d="M35.6916 14.0929L34.5022 14.7818C35.6538 16.7721 36.3055 19.0168 36.4148 21.3123H30.9203C30.8797 19.608 30.6976 17.9422 30.36 16.3568L29.0146 16.6435C29.3329 18.1361 29.5054 19.705 29.5453 21.313H27.5V22.688H29.5481C29.4938 24.8736 29.1837 26.9725 28.633 28.8755H15.3849C14.8404 27.0103 14.5145 24.9045 14.4567 22.688H16.5V21.313H14.4519C14.5062 19.1275 14.8163 17.0285 15.367 15.1255H22C22.3802 15.1255 22.6875 14.8175 22.6875 14.438V7.57814C24.2192 7.64827 25.707 7.96245 27.137 8.50764L27.6272 7.2227C25.1453 6.27739 22.5005 5.9632 19.7739 6.34752L19.9657 7.70877C20.4181 7.64483 20.8663 7.60908 21.3125 7.58708V13.7498H15.8235C15.8771 13.6061 15.9259 13.4583 15.9823 13.3181L14.7056 12.8073C14.5826 13.1146 14.4678 13.4301 14.3584 13.7505H10.1496C10.7133 12.9468 11.3637 12.1933 12.0979 11.501L11.154 10.5007C7.95094 13.5209 6.1875 17.6046 6.1875 21.9998C6.1875 30.4884 12.9112 37.4335 21.3125 37.7951V37.8123H22.6875V30.2498H28.1765C28.1229 30.3935 28.0741 30.5413 28.0177 30.6816L29.2944 31.1924C29.4174 30.8851 29.5323 30.5695 29.6416 30.2491H33.8367C33.1781 31.1945 32.4067 32.0683 31.5253 32.8431L32.4328 33.8757C35.8517 30.8706 37.8125 26.5421 37.8125 21.9998C37.8125 19.2244 37.0796 16.4902 35.6916 14.0929V14.0929ZM9.30394 15.1248H13.9397C13.42 17.0478 13.1285 19.1419 13.0769 21.3123H7.59688C7.69931 19.1123 8.2775 17.0106 9.30394 15.1248V15.1248ZM7.59756 22.6873H13.0721C13.1237 24.9086 13.4214 26.9986 13.9212 28.8748H9.30738C8.29881 27.0206 7.70344 24.9169 7.59756 22.6873ZM10.1688 30.2498H14.3357C15.1037 32.511 16.1844 34.3838 17.4783 35.7017C14.4925 34.7138 11.9378 32.7785 10.1688 30.2498ZM21.3125 36.3686C19.0829 35.9636 17.1016 33.6165 15.8448 30.2498H21.3125V36.3686ZM30.0596 28.8748C30.5793 26.9519 30.8708 24.8578 30.9224 22.6873H36.4183C36.3138 24.8708 35.7122 26.9821 34.6857 28.8748H30.0596Z" fill="#00469E"/>
<path d="M16.5474 4.21988H16.3591C15.9149 2.96381 14.7201 2.0625 13.3114 2.0625C12.0065 2.0625 10.8852 2.83662 10.373 3.949C9.78656 3.35569 8.97256 2.98719 8.07194 2.98719C6.28444 2.98719 4.83587 4.43575 4.83587 6.22325V7.30194H3.91188C2.89094 7.30194 2.0625 8.12969 2.0625 9.15131C2.0625 10.1729 2.89025 11 3.91188 11H11.6249H16.6451C18.5171 11 19.9375 9.57963 19.9375 7.70756C19.9375 5.8355 18.4195 4.21988 16.5474 4.21988V4.21988Z" fill="#A8D5FE"/>
<path d="M16.5467 4.21988H16.3583C15.9142 2.96381 14.7193 2.0625 13.3106 2.0625C12.5585 2.0625 11.8724 2.32512 11.3237 2.75619C12.6987 2.7885 13.8592 3.67469 14.2958 4.90738H14.4842C16.3562 4.90738 17.8742 6.52231 17.8742 8.39506C17.8742 9.48269 17.3854 10.4074 16.6161 11H16.6436C18.5164 11 19.9367 9.57963 19.9367 7.70756C19.9367 5.8355 18.4187 4.21988 16.5467 4.21988Z" fill="#CBE6FE"/>
<path d="M38.5474 7.65737H38.3591C37.9149 6.40131 36.7201 5.5 35.3114 5.5C34.0065 5.5 32.8852 6.27413 32.373 7.3865C31.7866 6.79319 30.9726 6.42469 30.0719 6.42469C28.2844 6.42469 26.8359 7.87325 26.8359 9.66075V10.7394H25.9119C24.8909 10.7394 24.0625 11.5672 24.0625 12.5888C24.0625 13.6104 24.8902 14.4375 25.9119 14.4375H33.6249H38.6451C40.5171 14.4375 41.9375 13.0171 41.9375 11.1451C41.9375 9.273 40.4195 7.65737 38.5474 7.65737V7.65737Z" fill="#A8D5FE"/>
<path d="M38.5467 7.65737H38.3583C37.9142 6.40131 36.7193 5.5 35.3106 5.5C34.5585 5.5 33.8724 5.76262 33.3237 6.19369C34.6987 6.226 35.8592 7.11219 36.2958 8.34487H36.4842C38.3562 8.34487 39.8742 9.95981 39.8742 11.8326C39.8742 12.9202 39.3854 13.8449 38.6161 14.4375H38.6436C40.5164 14.4375 41.9367 13.0171 41.9367 11.1451C41.9367 9.273 40.4187 7.65737 38.5467 7.65737V7.65737Z" fill="#CBE6FE"/>
<path d="M33.7349 35.1574H33.5466C33.1024 33.9013 31.9076 33 30.4989 33C29.194 33 28.0727 33.7741 27.5605 34.8865C26.9741 34.2932 26.1601 33.9247 25.2594 33.9247C23.4719 33.9247 22.0234 35.3732 22.0234 37.1607V38.2394H21.0994C20.0784 38.2394 19.25 39.0672 19.25 40.0888C19.25 41.1104 20.0778 41.9375 21.0994 41.9375H28.8124H33.8326C35.7046 41.9375 37.125 40.5171 37.125 38.6451C37.125 36.773 35.607 35.1574 33.7349 35.1574Z" fill="#A8D5FE"/>
<path d="M33.7342 35.1574H33.5458C33.1017 33.9013 31.9068 33 30.4981 33C29.746 33 29.0599 33.2626 28.5112 33.6937C29.8862 33.726 31.0467 34.6122 31.4833 35.8449H31.6717C33.5437 35.8449 35.0617 37.4598 35.0617 39.3326C35.0617 40.4202 34.5729 41.3449 33.8036 41.9375H33.8311C35.7039 41.9375 37.1242 40.5171 37.1242 38.6451C37.1242 36.773 35.6062 35.1574 33.7342 35.1574Z" fill="#CBE6FE"/>
<path d="M22 27.5C25.0376 27.5 27.5 25.0376 27.5 22C27.5 18.9624 25.0376 16.5 22 16.5C18.9624 16.5 16.5 18.9624 16.5 22C16.5 25.0376 18.9624 27.5 22 27.5Z" fill="#FEBE07"/>
<path d="M22 16.5C21.6473 16.5 21.3029 16.5364 20.9688 16.5997C23.5132 17.083 25.4375 19.3153 25.4375 22C25.4375 24.6847 23.5132 26.917 20.9688 27.4003C21.3029 27.4636 21.6473 27.5 22 27.5C25.0374 27.5 27.5 25.0374 27.5 22C27.5 18.9626 25.0374 16.5 22 16.5V16.5Z" fill="#FFD45A"/>
<path d="M22 21.3125C21.6205 21.3125 21.3125 21.0038 21.3125 20.625C21.3125 20.2462 21.6205 19.9375 22 19.9375C22.3795 19.9375 22.6875 20.2462 22.6875 20.625H24.0625C24.0625 19.7299 23.4857 18.9736 22.6875 18.689V17.875H21.3125V18.689C20.5143 18.9736 19.9375 19.7299 19.9375 20.625C19.9375 21.7621 20.8629 22.6875 22 22.6875C22.3795 22.6875 22.6875 22.9962 22.6875 23.375C22.6875 23.7538 22.3795 24.0625 22 24.0625C21.6205 24.0625 21.3125 23.7538 21.3125 23.375H19.9375C19.9375 24.2701 20.5143 25.0264 21.3125 25.311V26.125H22.6875V25.311C23.4857 25.0264 24.0625 24.2701 24.0625 23.375C24.0625 22.2379 23.1371 21.3125 22 21.3125Z" fill="#FEFEFE"/>
<path d="M39.0411 11.0367H38.5C38.5 10.6572 38.192 10.3492 37.8125 10.3492V9.80816C37.8125 9.29666 38.3604 8.94672 38.8107 9.19078C39.1689 9.38535 39.4646 9.68097 39.6591 10.0392C39.9025 10.4881 39.5532 11.0367 39.0411 11.0367Z" fill="#FEFEFE"/>
<path d="M34.2286 38.6448H33.6875C33.6875 38.2653 33.3795 37.9573 33 37.9573V37.4162C33 36.9047 33.5479 36.5548 33.9982 36.7988C34.3564 36.9934 34.6521 37.289 34.8466 37.6472C35.09 38.0968 34.7407 38.6448 34.2286 38.6448Z" fill="#FEFEFE"/>
<path d="M16.3662 41.8459C16.3455 41.8397 16.3249 41.8342 16.3043 41.828C15.9461 41.7256 15.7488 41.3392 15.8636 40.9844L15.876 40.9453C15.988 40.5994 16.3545 40.4124 16.7044 40.5121C16.7092 40.5135 16.7147 40.5149 16.7195 40.5163C17.0695 40.6159 17.2826 40.9679 17.1953 41.3213L17.1857 41.3612C17.0956 41.7235 16.725 41.9469 16.3662 41.8459V41.8459ZM13.6911 40.8827C13.6712 40.8738 13.6505 40.8648 13.6306 40.8559C13.2896 40.7046 13.1487 40.2949 13.3116 39.9594L13.3295 39.9223C13.4883 39.595 13.8774 39.4609 14.2102 39.6081C14.215 39.6101 14.2205 39.6129 14.2253 39.6149C14.558 39.7621 14.7203 40.1402 14.5849 40.4778L14.5697 40.5163C14.4302 40.8621 14.0321 41.0333 13.6911 40.8827V40.8827ZM11.1749 39.5579C11.1563 39.5462 11.1377 39.5352 11.1192 39.5235C10.8029 39.3269 10.719 38.902 10.926 38.5919L10.9487 38.5576C11.1508 38.2551 11.555 38.1753 11.8644 38.3678C11.8692 38.3706 11.874 38.374 11.8789 38.3768C12.1882 38.5686 12.2969 38.9653 12.116 39.2808L12.0954 39.3166C11.9098 39.6397 11.4918 39.7545 11.1749 39.5579ZM8.86486 37.9017C8.84836 37.8879 8.83117 37.8742 8.81467 37.8604C8.52798 37.6219 8.50323 37.1901 8.75073 36.911L8.77823 36.8801C9.01955 36.6078 9.43067 36.5844 9.71117 36.8168C9.7153 36.8203 9.72011 36.8244 9.72423 36.8278C10.0047 37.0602 10.0577 37.4686 9.83423 37.7566L9.8088 37.7889C9.58123 38.0839 9.15223 38.1389 8.86486 37.9017V37.9017ZM6.80373 35.9444C6.7893 35.9286 6.77417 35.9121 6.75973 35.8963C6.50811 35.6206 6.54317 35.1888 6.82711 34.9468L6.85805 34.92C7.13511 34.6835 7.54486 34.7172 7.79098 34.986C7.79442 34.9901 7.79786 34.9936 7.80198 34.9977C8.04742 35.2658 8.04467 35.6776 7.7848 35.932L7.75523 35.9609C7.48917 36.2228 7.05605 36.2194 6.80373 35.9444ZM5.02998 33.7238C5.01761 33.7059 5.00523 33.6887 4.99355 33.6708C4.78248 33.3635 4.87598 32.9407 5.19017 32.7393L5.22455 32.7173C5.53117 32.5213 5.93267 32.6107 6.13892 32.9104C6.14167 32.9146 6.14511 32.9194 6.14786 32.9235C6.3548 33.2233 6.29498 33.6303 6.0028 33.8475L5.96979 33.8723C5.67073 34.0936 5.24242 34.0304 5.02998 33.7238V33.7238ZM3.5773 31.2831C3.56767 31.2639 3.55805 31.2446 3.54773 31.2247C3.38067 30.8913 3.53192 30.4849 3.87155 30.3296L3.90867 30.3124C4.23936 30.1604 4.62436 30.3048 4.78798 30.63C4.79005 30.6341 4.79211 30.6389 4.79486 30.6431C4.95848 30.9676 4.84367 31.3629 4.52467 31.5375L4.48892 31.5574C4.16167 31.7369 3.74573 31.6159 3.5773 31.2831V31.2831ZM2.47661 28.6644C2.46973 28.6445 2.46286 28.6239 2.45598 28.6039C2.33636 28.2506 2.54261 27.869 2.89942 27.7618L2.93861 27.7501C3.28717 27.6456 3.6488 27.8408 3.76567 28.1859C3.76705 28.1908 3.76911 28.1956 3.77048 28.1997C3.88736 28.5441 3.71892 28.9188 3.3793 29.0481L3.3408 29.0625C2.99223 29.1938 2.59692 29.0171 2.47661 28.6644V28.6644ZM1.74717 25.9172C1.74305 25.8966 1.73892 25.8753 1.73548 25.8546C1.66605 25.4882 1.9218 25.1389 2.2903 25.0812L2.33086 25.075C2.69042 25.0186 3.02248 25.2627 3.09055 25.6195C3.09192 25.625 3.09261 25.6305 3.09398 25.636C3.16205 25.9935 2.94342 26.3421 2.58867 26.4225L2.5488 26.4314C2.18442 26.5139 1.81798 26.2829 1.74717 25.9172ZM1.40342 23.0971C1.40205 23.0751 1.40136 23.0538 1.39998 23.0318C1.38142 22.6591 1.68323 22.3484 2.05655 22.3429L2.09711 22.3422C2.4608 22.336 2.75573 22.6234 2.7743 22.9871C2.7743 22.9926 2.77498 22.9974 2.77498 23.0029C2.79355 23.3659 2.52955 23.6814 2.16655 23.7124L2.12598 23.7158C1.75473 23.7474 1.42336 23.469 1.40342 23.0971V23.0971ZM2.12117 20.9693L2.07992 20.9672C1.7073 20.9479 1.41648 20.6269 1.44811 20.2556C1.45017 20.2336 1.45155 20.2123 1.45361 20.1903C1.48592 19.8191 1.82692 19.5516 2.19748 19.5963L2.23805 19.6011C2.59898 19.6444 2.85267 19.9689 2.82173 20.3313C2.82105 20.3368 2.82105 20.3423 2.82036 20.3478C2.78942 20.7108 2.48417 20.9878 2.12117 20.9693V20.9693ZM2.44842 18.2454L2.40786 18.2378C2.04142 18.1677 1.79805 17.8095 1.87986 17.4458C1.88467 17.4245 1.88948 17.4032 1.8943 17.3826C1.97748 17.0189 2.35148 16.8016 2.71242 16.8965L2.7523 16.9068C3.1043 16.9996 3.31055 17.3558 3.23011 17.7098C3.22873 17.7153 3.22736 17.7208 3.22667 17.7263C3.14623 18.0818 2.80592 18.3134 2.44842 18.2454V18.2454ZM3.14898 15.5923L3.1098 15.5786C2.75642 15.4589 2.56461 15.0705 2.69592 14.7213C2.70348 14.7006 2.71105 14.6807 2.7193 14.6601C2.85198 14.3115 3.2528 14.1479 3.59655 14.2916L3.63436 14.3074C3.96986 14.449 4.12523 14.8306 3.99598 15.1709C3.99392 15.1757 3.99255 15.1812 3.99048 15.186C3.86192 15.5256 3.49342 15.7092 3.14898 15.5923V15.5923Z" fill="#FFD45A"/>
<path d="M38.2678 33.5441L38.2348 33.52C37.9385 33.309 37.8718 32.9027 38.0718 32.5995C38.0746 32.5947 38.078 32.5905 38.0808 32.5857C38.2815 32.2819 38.6817 32.1849 38.9917 32.3747L39.0268 32.396C39.3444 32.5905 39.4462 33.012 39.2413 33.3227C39.2296 33.3413 39.2172 33.3592 39.2048 33.3777C38.9993 33.6899 38.5717 33.7607 38.2678 33.5441V33.5441ZM39.704 31.1997L39.6675 31.1812C39.3451 31.0127 39.2227 30.6202 39.3795 30.2922C39.3815 30.2874 39.3843 30.2826 39.3863 30.2778C39.5431 29.9492 39.9253 29.7979 40.2588 29.943L40.2959 29.9595C40.6376 30.108 40.7971 30.5115 40.6369 30.8484C40.6273 30.8684 40.6183 30.8876 40.6087 30.9075C40.4485 31.2424 40.0347 31.3723 39.704 31.1997V31.1997ZM40.8019 28.6787L40.7634 28.6649C40.4203 28.5432 40.245 28.1706 40.355 27.8241C40.3564 27.8186 40.3585 27.8138 40.3598 27.8083C40.4698 27.4611 40.8273 27.2583 41.178 27.3559L41.2172 27.3669C41.576 27.4673 41.7898 27.844 41.6778 28.1995C41.6709 28.2208 41.6647 28.2414 41.6578 28.2627C41.5451 28.6182 41.1532 28.8038 40.8019 28.6787V28.6787ZM41.5403 26.0297L41.4997 26.0215C41.1436 25.9479 40.9181 25.6042 40.9786 25.246C40.9793 25.2405 40.9807 25.235 40.9813 25.2288C41.0418 24.8699 41.3684 24.6197 41.7287 24.6678L41.7692 24.6733C42.1391 24.7228 42.4024 25.0665 42.3412 25.4344C42.3378 25.4564 42.3337 25.4777 42.3302 25.4997C42.2677 25.8675 41.9053 26.1054 41.5403 26.0297Z" fill="#FFD45A"/>
<path d="M17.0049 8.24985H16.4639C16.4639 7.87035 16.1559 7.56235 15.7764 7.56235V7.02129C15.7764 6.50979 16.3243 6.15986 16.7746 6.40392C17.1328 6.59848 17.4284 6.89411 17.623 7.25229C17.8657 7.70192 17.5164 8.24985 17.0049 8.24985Z" fill="#FEFEFE"/>
</svg>
